<?xml version="1.0" encoding="utf-8"?>
<!-- Generator: Adobe Illustrator 22.0.0, SVG Export Plug-In . SVG Version: 6.00 Build 0)  -->
<svg version="1.1" id="图层_1" xmlns:sketch="http://www.bohemiancoding.com/sketch/ns"
	 xmlns="http://www.w3.org/2000/svg" xmlns:xlink="http://www.w3.org/1999/xlink" x="0px" y="0px" viewBox="0 0 1012 200"
	 style="enable-background:new 0 0 1012 200;" xml:space="preserve">
<style type="text/css">
	.st0{fill:#FFFFFF;}
	.st1{fill:#00F2E6;}
	.st2{fill:#00B9F1;}
	.st3{fill:#D63AFF;}
	.st4{fill:#FB015B;}
</style>
<title>JWT</title>
<desc>Created with Sketch.</desc>
<rect id="Rectangle-path" y="-0.2" sketch:type="MSShapeGroup" width="1012" height="200">
</rect>
<g id="Shape" transform="translate(50.000000, 50.000000)" sketch:type="MSShapeGroup">
	<g>
		<path class="st0" d="M363.8,26.5l-0.1-26.9h-15l0.1,26.9l7.5,10.3L363.8,26.5z"/>
		<path class="st0" d="M348.8,72.6v27h15v-27l-7.5-10.3L348.8,72.6z"/>
		<path class="st1" d="M363.8,72.6l15.8,21.8l12.1-8.8l-15.8-21.8l-12.1-3.9V72.6z"/>
		<path class="st1" d="M348.8,26.5L332.9,4.7l-12.1,8.8l15.8,21.8l12.2,3.9V26.5z"/>
		<path class="st2" d="M336.6,35.3L311,27l-4.6,14.2l25.6,8.4l12.1-4L336.6,35.3z"/>
		<path class="st2" d="M368.4,53.5l7.5,10.3l25.6,8.3l4.6-14.2l-25.6-8.3L368.4,53.5z"/>
		<path class="st3" d="M380.5,49.6l25.6-8.4L401.5,27l-25.6,8.3l-7.5,10.3L380.5,49.6z"/>
		<path class="st3" d="M332,49.6l-25.6,8.3l4.6,14.2l25.6-8.3l7.5-10.3L332,49.6z"/>
		<path class="st4" d="M336.6,63.8l-15.8,21.8l12.1,8.8l15.9-21.8V59.9L336.6,63.8z"/>
		<path class="st4" d="M375.9,35.3l15.8-21.8l-12.1-8.8l-15.8,21.8v12.7L375.9,35.3z"/>
	</g>
	<path class="st0" d="M462.1,25.1v35c0,7.7-6.3,14-14,14v-7c3.9,0,7-3.1,7-7v-35H462.1L462.1,25.1z M589.9,32.1h15.8v-7h-38.5v7
		h15.7v42h7V32.1L589.9,32.1z M546.1,25.1v35c0,3.9-3.1,7-7,7c-3.9,0-7-3.1-7-7v-21c0-7.7-6.3-14-14-14c-7.7,0-14,6.3-14,14v21
		c0,3.9-3.1,7-7,7s-7-3.1-7-7v-35h-7v35c0,7.7,6.3,14,14,14c7.7,0,14-6.3,14-14v-21c0-3.9,3.1-7,7-7c3.9,0,7,3.1,7,7l0,0v21
		c0,7.7,6.3,14,14,14c7.7,0,14-6.3,14-14v-35H546.1L546.1,25.1z"/>
</g>
</svg>
